<?xml version="1.0" standalone="no"?><!DOCTYPE svg PUBLIC "-//W3C//DTD SVG 1.1//EN" "http://www.w3.org/Graphics/SVG/1.1/DTD/svg11.dtd"><svg t="1542955004001" class="icon" style="" viewBox="0 0 1024 1024" version="1.1" xmlns="http://www.w3.org/2000/svg" p-id="9459" xmlns:xlink="http://www.w3.org/1999/xlink" width="128" height="128"><defs><style type="text/css"></style></defs><path d="M168.51 826h2.126c68.246 0 127.954-38.042 170.61-84.988 42.65 46.946 102.36 85.524 170.608 85.524s127.958-38.668 170.61-85.612C725.118 787.868 784.824 826 853.07 826h2.124l102.506-277.56c4.252-10.658 2.126-23.282-2.14-33.952-4.272-10.666-14.474-16.974-25.134-21.246L854 468.266v-196.3C854 225.02 814.688 186 767.768 186h-127.958l-31.986-106h-191.938l-31.99 106h-127.958C209.022 186 170 225.02 170 271.964v196.3l-76.148 25.066c-10.66 4.272-21.164 10.668-25.436 21.334-4.27 10.67-6.316 20.98-2.062 33.774L168.51 826zM256 272h512v168.522l-256-83.21-256 83.21V272z" fill="" p-id="9460"></path><path d="M682.462 816.014c-104.506 72.534-236.712 72.516-341.216-0.018 0 0-115.276 128.004-213.264 128.004h42.654c59.708 0 117.292-23.452 170.61-51.188 106.63 55.468 234.586 55.456 341.216-0.014C735.78 920.536 793.362 944 853.07 944h42.656c-95.302 0-213.264-127.986-213.264-127.986z" fill="" p-id="9461"></path></svg>